<svg width="44" height="45" viewBox="0 0 44 45" fill="none" xmlns="http://www.w3.org/2000/svg">
<circle cx="22" cy="22.4902" r="22" fill="#2B2B2B"/>
<g clip-path="url(#clip0_119_1233)">
<path d="M31.027 17.3086C31.2145 17.0902 30.9794 16.7772 30.7036 16.8598C30.4051 16.9491 30.1918 16.492 30.3892 16.2508C30.4866 16.1319 30.577 16.0071 30.66 15.877C30.8499 15.5791 30.5115 15.283 30.1869 15.4226C29.8186 15.5809 29.4361 15.7117 29.0416 15.814C28.7594 15.8872 28.4676 15.7843 28.2443 15.5968C27.5534 15.0169 26.6618 14.6699 25.702 14.6699C23.5171 14.6699 21.7582 16.4433 21.7582 18.6174C21.7582 19.0728 21.3986 19.4956 20.9469 19.4368C18.7628 19.1527 16.7787 18.2384 15.1766 16.8803C14.4071 16.228 13.1751 16.3753 13.1751 17.3842C13.1751 18.3014 13.492 19.1487 14.0176 19.8188C14.243 20.1061 14.0512 20.5572 13.708 20.4327C13.5255 20.3666 13.3497 20.2878 13.183 20.1985C13.1659 20.1893 13.145 20.2017 13.145 20.2211C13.145 21.7686 14.0356 23.1045 15.322 23.7556C15.5565 23.8742 15.5349 24.2287 15.2721 24.2287C14.94 24.2287 14.664 24.5589 14.8246 24.8496C15.0085 25.1823 15.2383 25.4864 15.5056 25.7528C16.2222 26.4671 16.5152 27.9951 15.5438 28.2777C14.8377 28.4831 14.0909 28.5937 13.3195 28.5937C13.0911 28.5937 12.9896 28.9111 13.1914 29.0181C14.7547 29.8472 16.5335 30.3105 18.4291 30.3105C25.6912 30.3105 29.6615 24.2949 29.6615 19.0806C29.6615 19.0415 29.6612 19.0028 29.6606 18.9643C29.6571 18.7189 29.7699 18.4864 29.9623 18.334C30.3505 18.0266 30.7052 17.6832 31.027 17.3086Z" fill="#CDCDCD"/>
</g>
<defs>
<clipPath id="clip0_119_1233">
<rect width="19.25" height="19.25" fill="white" transform="translate(12.375 12.8652)"/>
</clipPath>
</defs>
</svg>
