<svg width="300" height="60" viewBox="0 0 300 60" fill="none" xmlns="http://www.w3.org/2000/svg">
<g clip-path="url(#clip0_1_29)">
<path d="M57.1172 0C58.3852 0 59.4211 1.04607 59.4211 2.32644V57.6736C59.4211 58.9539 58.3852 60 57.1172 60H2.30391C1.03594 60 0 58.9539 0 57.6736V2.32644C0.00234375 1.04607 1.03828 0 2.30391 0H57.1172Z" fill="#CDCDCD"/>
<path d="M57.607 37.8242L59.4188 39.6537L59.4164 49.6032L55.1836 53.8798L48.6492 47.2815C48.1734 46.801 47.5289 46.5312 46.8562 46.5312C46.1836 46.5312 45.5391 46.801 45.0633 47.2815L41.7844 50.5925C40.1695 52.2231 38.6695 53.0538 37.2797 53.0775C35.8922 53.1035 34.418 52.3249 32.85 50.7439L16.1203 33.8506C15.5648 33.2897 15.5906 32.7027 16.1953 32.0921L22.0992 26.1305C22.7063 25.5175 23.0109 24.985 23.0086 24.5235C23.0086 24.0691 22.7344 23.5579 22.1766 22.9946L16.9523 17.7169C15.893 16.6472 14.8336 16.6472 13.7719 17.7193L7.86797 23.681C7.26328 24.2939 6.68203 24.32 6.12656 23.7567L0 17.5702V12.2097L5.36953 6.78763C6.24844 5.90249 7.67109 5.90249 8.54766 6.78763L15.7406 14.051C16.2984 14.6142 16.8773 14.5858 17.482 13.9752L23.3859 8.01357C24.2648 7.12607 25.6898 7.12607 26.5688 8.01357L31.7906 13.2865C32.3484 13.8498 32.625 14.3563 32.6227 14.8154C32.625 15.2769 32.3203 15.8094 31.7133 16.4224L25.8094 22.384C25.2023 22.997 25.1789 23.5839 25.7344 24.1425L45.0633 43.6605C45.5391 44.1409 46.1836 44.4107 46.8562 44.4107C47.5289 44.4107 48.1734 44.1409 48.6492 43.6605L54.4266 37.8266C55.3055 36.9367 56.7305 36.9367 57.607 37.8242Z" fill="#111110"/>
<path d="M76.4125 39.9424C73.5883 39.9424 71.3008 37.6349 71.3008 34.7807V21.3474H74.4977V24.8998H82.6914V28.1279H74.4977V34.7807C74.4977 35.8693 75.332 36.7142 76.4102 36.7142H83.8586V39.9424H76.4125V39.9424Z" fill="#CDCDCD"/>
<path d="M91.3871 39.9425C88.5629 39.9425 86.2754 37.635 86.2754 34.7808V30.0616C86.2754 27.2098 88.5606 24.8999 91.3871 24.8999H100.748C103.561 24.8999 105.86 27.2074 105.86 30.0616V34.7808C105.86 37.6326 103.561 39.9425 100.748 39.9425H91.3871ZM102.661 34.7808V30.0616C102.661 28.973 101.812 28.1304 100.748 28.1304H91.3871C90.309 28.1304 89.4746 28.973 89.4746 30.0616V34.7808C89.4746 35.8695 90.309 36.712 91.3871 36.712H100.748C101.814 36.7144 102.661 35.8718 102.661 34.7808Z" fill="#CDCDCD"/>
<path d="M125.21 39.9424V30.0615C125.21 28.9729 124.376 28.1303 123.298 28.1303H114.527C113.435 28.1303 112.615 28.961 112.615 30.0497V39.9448H109.418V24.9022H112.615V25.7447C113.231 25.0323 113.873 24.9022 114.527 24.9022H123.298C126.122 24.9022 128.409 27.2097 128.409 30.0639V39.9448H125.21V39.9424Z" fill="#CDCDCD"/>
<path d="M144.036 39.9425C141.211 39.9425 138.924 37.635 138.924 34.7808V30.0616C138.924 27.2098 141.209 24.8999 144.036 24.8999H157.339V28.128H144.036C142.957 28.128 142.123 28.9706 142.123 30.0593V34.7784C142.123 35.8671 142.957 36.712 144.036 36.712H157.339V39.9401H144.036V39.9425Z" fill="#CDCDCD"/>
<path d="M160.65 39.9424V21.3474H163.847V36.7142H181.402V39.9424H160.65Z" fill="#CDCDCD"/>
<path d="M207.804 39.9424L205.454 36.4018H189.903L187.566 39.9424H183.713L195.989 21.3474H199.367L211.643 39.9424H207.804ZM197.684 24.6158L192.033 33.1737H203.335L197.684 24.6158Z" fill="#CDCDCD"/>
<path d="M214.184 39.9424V21.3474H233.33C236.154 21.3474 238.441 23.6691 238.441 26.5092C238.441 27.9623 238.338 28.8569 237.53 30.0355C238.828 31.0082 239.611 32.5631 239.611 34.1985V34.7831C239.611 37.6349 237.326 39.9448 234.499 39.9448H214.184V39.9424ZM235.245 27.1056V26.5092C235.245 25.4323 234.41 24.5779 233.33 24.5779H217.38V29.0391H233.33C234.41 29.0368 235.245 28.1824 235.245 27.1056ZM236.412 34.7807V34.1961C236.412 33.1074 235.577 32.2649 234.499 32.2649H217.38V36.7119H234.499C235.577 36.7143 236.412 35.8717 236.412 34.7807Z" fill="#CDCDCD"/>
<path d="M246.915 39.9424C244.309 39.9424 242.176 37.8408 242.176 35.2611V34.8209H245.373V35.2611C245.373 36.0918 246.041 36.7142 246.915 36.7142H260.527C261.399 36.7142 262.067 36.0918 262.067 35.2611V33.718C262.067 32.8873 261.399 32.2649 260.527 32.2649H246.915C244.309 32.2649 242.176 30.1633 242.176 27.5718V26.0405C242.176 23.4609 244.306 21.3474 246.915 21.3474H260.527C263.134 21.3474 265.266 23.4609 265.266 26.0405V26.4689H262.07V26.0405C262.07 25.2098 261.402 24.5756 260.53 24.5756H246.917C246.043 24.5756 245.375 25.2098 245.375 26.0405V27.5718C245.375 28.4025 246.043 29.0367 246.917 29.0367H260.53C263.136 29.0367 265.269 31.1384 265.269 33.718V35.2611C265.269 37.8408 263.136 39.9424 260.53 39.9424H246.915V39.9424Z" fill="#CDCDCD"/>
<path d="M270.541 35.5332H267.344V39.9423H270.541V35.5332Z" fill="#CDCDCD"/>
<path d="M285.528 39.9425C282.704 39.9425 280.416 37.635 280.416 34.7808V30.0616C280.416 27.2098 282.701 24.8999 285.528 24.8999H294.889C297.701 24.8999 300 27.2074 300 30.0616V34.7808C300 37.6326 297.701 39.9425 294.889 39.9425H285.528ZM296.804 34.7808V30.0616C296.804 28.973 295.955 28.1304 294.891 28.1304H285.53C284.452 28.1304 283.618 28.973 283.618 30.0616V34.7808C283.618 35.8695 284.452 36.712 285.53 36.712H294.891C295.955 36.7144 296.804 35.8718 296.804 34.7808Z" fill="#CDCDCD"/>
<path d="M135.353 24.8999H132.156V39.9425H135.353V24.8999Z" fill="#CDCDCD"/>
<path d="M135.353 20.0576H132.156V23.2858H135.353V20.0576Z" fill="#CDCDCD"/>
<path d="M276.845 24.8999H273.648V39.9425H276.845V24.8999Z" fill="#CDCDCD"/>
<path d="M276.845 20.0576H273.648V23.2858H276.845V20.0576Z" fill="#CDCDCD"/>
</g>
<defs>
<clipPath id="clip0_1_29">
<rect width="300" height="60" fill="white"/>
</clipPath>
</defs>
</svg>
